<svg width="620" height="620" viewBox="0 0 620 620" fill="none" xmlns="http://www.w3.org/2000/svg">
<rect width="620" height="620" rx="80" fill="#00526A"/>
<path d="M420.944 170.47C420.944 170.47 420.944 238.77 310.304 293.4C199.664 238.77 199.664 170.47 199.664 170.47C199.664 136.53 227.534 109 261.894 109C271.189 109.01 280.364 111.104 288.742 115.13C297.12 119.155 304.488 125.009 310.304 132.26C316.119 125.011 323.486 119.158 331.862 115.133C340.239 111.108 349.411 109.012 358.704 109C393.094 109 420.944 136.53 420.944 170.47Z" fill="#FFFDFE"/>
<path d="M557.264 300.77C556.514 285.37 550.264 272.77 539.744 265.31C532.654 260.31 523.874 257.71 514.124 257.71C507.652 257.781 501.225 258.792 495.044 260.71C480.94 264.98 467.337 270.76 454.474 277.95C437.824 287.17 421.224 296.87 405.044 306.45C402.044 308.27 398.954 310.05 395.934 311.84C391.324 314.58 386.744 317.29 382.104 319.97C381.93 320.107 381.746 320.231 381.554 320.34L236.844 417.53C236.654 417.64 236.484 417.78 236.284 417.89C233.134 419.74 230.034 421.58 226.874 423.45C222.344 426.08 217.794 428.76 213.264 431.45C194.354 442.66 174.794 454.25 155.264 465.04C143.817 471.462 131.701 476.613 119.134 480.4C108.514 483.56 99.524 483.06 93.734 478.98C87.564 474.56 85.914 466.57 85.604 460.65C83.394 414.65 81.214 365.65 81.334 317.57C81.334 305.02 83.284 288.79 92.334 282.87C101.384 276.95 117.454 281.58 129.274 286.61C141.274 291.75 171.824 306.98 196.324 319.19C204.684 323.35 212.324 327.19 218.564 330.25C219.888 330.903 221.329 331.286 222.802 331.378C224.275 331.471 225.752 331.269 227.148 330.787C228.543 330.304 229.828 329.549 230.93 328.566C232.031 327.583 232.926 326.392 233.564 325.06V324.97C234.83 322.333 235.003 319.303 234.043 316.54C233.084 313.777 231.071 311.505 228.444 310.22C222.274 307.17 214.644 303.35 206.314 299.22C180.214 286.18 150.684 271.43 138.004 266C113.504 255.58 94.004 254.93 80.004 264.15C66.004 273.37 59.064 291.29 59.004 317.5C58.894 366.15 61.074 415.4 63.314 461.7C64.064 477.1 70.314 489.7 80.854 497.19C87.954 502.19 96.704 504.76 106.474 504.76C112.937 504.715 119.358 503.724 125.534 501.82C139.644 497.565 153.247 491.784 166.104 484.58C182.754 475.36 199.354 465.64 215.554 456.09C218.554 454.27 221.644 452.48 224.664 450.69L238.914 442.26C241.914 440.5 244.914 438.74 247.854 437C248.054 436.89 248.274 436.75 248.444 436.64L306.004 398C306.916 399.334 308.111 400.45 309.504 401.27C334.504 416.02 402.764 457.57 414.274 463.32C440.344 476.32 469.904 491.1 482.564 496.49C507.094 506.91 526.564 507.49 540.564 498.33C554.564 489.17 561.494 471.23 561.564 445C561.704 396.35 559.524 347.09 557.264 300.77ZM528.264 479.64C519.124 485.64 503.144 480.92 491.324 475.9C479.254 470.75 448.774 455.53 424.244 443.32C413.484 437.92 354.244 401.94 325.504 384.87L393.674 339.07L394.234 338.74C398.594 336.19 402.924 333.6 407.284 331.03C426.194 319.85 445.784 308.25 465.284 297.47C476.725 291.054 488.83 285.901 501.384 282.1C512.004 278.95 521.024 279.45 526.784 283.53C532.984 287.94 534.634 295.93 534.914 301.86C537.144 347.86 539.324 396.86 539.214 444.94C539.214 457.48 537.284 473.69 528.294 479.64H528.264Z" fill="white"/>
</svg>
