<?xml version="1.0" encoding="utf-8" ?>
<svg xmlns="http://www.w3.org/2000/svg" xmlns:xlink="http://www.w3.org/1999/xlink" width="512" height="512">
	<path fill="#00526A" d="M67.4415 444.946L139.301 445.447L139.425 467.047C139.425 476.415 139.589 484.473 130.711 490.352L129.995 490.825C125.027 494.09 119.8 494.006 114.079 494.017L91.0973 493.998C82.8583 493.96 75.5048 492.43 70.6245 484.887L70.4211 484.568C66.5243 478.586 67.335 472.414 67.3423 465.578L67.4415 444.946Z"/>
	<path fill="#00526A" d="M372.265 445.455L444.424 445.74L444.985 464.604C444.995 471.779 445.554 478.772 441.236 484.928L441.008 485.25C436.455 491.843 430.158 493.929 422.645 493.966L391.422 494.034C376.883 493.447 372.313 481.573 372.291 469.257L372.265 445.455Z"/>
	<defs>
		<linearGradient id="gradient_0" gradientUnits="userSpaceOnUse" x1="256.78021" y1="13.794556" x2="254.04631" y2="152.48613">
			<stop offset="0" stop-color="#FF7786"/>
			<stop offset="1" stop-color="#896AAE"/>
		</linearGradient>
	</defs>
	<path fill="url(#gradient_0)" d="M232.65 139.184C208.549 125.789 181.167 97.0794 173.673 70.758C170.287 58.8677 169.673 45.5357 175.924 34.4603C188.363 12.4201 216.413 10.5012 236.767 22.1045C244.436 26.4764 249.901 32.9396 256.024 39.1225C260.119 35.1893 263.701 30.7294 268.014 27.0082C277.619 18.7217 291.184 14.5071 303.766 14.7462C324.337 15.137 341.484 34.3322 341.057 54.5C340.291 90.6831 308.482 120.524 280.033 139.307C278.796 140.124 277.338 141.316 275.97 141.855L260.293 151.192C259.045 151.823 255.964 153.097 254.669 152.622L254.375 152.505C249.458 150.651 237.269 142.976 232.65 139.184Z"/>
	<path fill="#00526A" d="M90.7632 269.034L49.853 269.456C44.4865 268.86 39.703 265.168 37.1252 260.497L36.9052 260.092C34.559 255.864 35.0515 251.735 35.0411 247.068C35.0059 231.207 34.8554 221.321 54.969 221.25L74.4075 221.172C88.3017 221.108 91.6434 233.227 98.347 242.467C104.049 230.692 111.306 219.469 117.78 208.089L129.747 187C137.414 173.642 144.904 158.826 162.25 157.418C166.536 157.07 170.896 157.214 175.195 157.209L338.621 157.19C360.446 157.184 366.53 159.805 378.234 180.125L413.898 242.453C418.173 235.978 422.338 227.474 429.001 223.223C433.939 220.073 439.986 221.244 445.538 221.242L457.674 221.257C474.601 221.305 476.967 227.797 477.006 244.276C477.027 253.386 477.795 262.227 468.352 267.419L468.065 267.574C464.842 269.409 461.739 269.236 458.177 269.246L432.585 269.234C428.143 269.219 423.505 269.299 419.123 268.529L418.883 268.484C414.364 266.511 408.137 265.084 403.264 264.819C399.778 266.446 396.703 269.025 393.378 270.982C379.241 279.304 366.545 281.849 350.592 281.857L163.654 281.872C142.806 281.893 135.742 281.4 116.369 269.905L110.701 266.276C107.827 264.342 107.651 265.068 104.263 265.876L90.7632 269.034Z"/>
	<path fill="#FB6F92" d="M90.7632 269.034L104.263 265.876C107.651 265.068 107.827 264.342 110.701 266.276L116.369 269.905C135.742 281.4 142.806 281.893 163.654 281.872L350.592 281.857C366.545 281.849 379.241 279.304 393.378 270.982C396.703 269.025 399.778 266.446 403.264 264.819C408.137 265.084 414.364 266.511 418.883 268.388C420.965 270.253 423.666 271.505 425.982 273.077C430.553 276.178 434.877 279.508 438.98 283.207L447.691 291.833C448.413 292.566 449.513 294.155 450.377 294.552C456.154 299.675 460.93 314.787 461.338 321.875L461.469 404.138L461.373 431.074C460.67 442.712 445.035 444.315 444.424 445.968L372.071 445.45L322.884 445.434L189.835 445.509L139.301 445.51L67.5117 445.001C66.0146 444.782 64.5379 444.631 63.1064 444.139L62.75 444.014C51.1683 440.092 50.7077 431.289 50.7149 421.512L50.7368 403.8L50.7114 337.19C50.7091 324.913 51.9202 306.933 60.1058 296.871C65.9887 289.296 72.0459 282.209 79.796 276.434L90.7632 269.034ZM60.1058 296.871C51.9202 306.933 50.7091 324.913 50.7114 337.19L50.8351 404.013C51.0414 403.748 51.3377 403.892 51.6467 403.904L141.028 404.534C145.642 404.551 150.63 405.414 154.875 403.223C162.164 399.459 164.441 394.303 163.117 386.844L161.131 376.538C154.719 341.86 150.74 326.264 116.944 313.307L93.0021 305.421L60.1058 296.871ZM461.469 404.138L461.338 321.875C460.93 314.787 456.154 299.675 450.377 294.552C446.575 297.624 441.84 299.227 437.22 300.649L404.925 310.769C369.696 323.078 359.564 331.348 352.455 367.623L350.231 379.997C348.051 391.56 346.399 400.27 361.829 404.382C364.355 405.056 367.839 404.581 370.485 404.557L460.871 404.356C461.43 404.352 461.287 404.216 461.469 404.138ZM172.519 359.429C172.378 362.302 173.383 370.527 174.922 373.25L336.547 373.263C337.649 369.019 338.441 363.52 338.206 359.15L338.223 358.891C338.879 350.169 343.922 342.214 337.294 334.347C331.407 327.36 324.507 327.842 316.355 327.867L192.36 327.881C189.822 327.878 187.239 327.737 184.728 328.152L184.262 328.227C179.839 328.986 175.675 332.398 173.208 336.041C167.852 343.948 174.014 356.642 172.519 359.429Z"/>
	<path fill="#00526A" d="M172.519 359.429C174.014 356.642 167.852 343.948 173.208 336.041C175.675 332.398 179.839 328.986 184.262 328.227L184.728 328.152C187.239 327.737 189.822 327.878 192.36 327.881L316.355 327.867C324.507 327.842 331.407 327.36 337.294 334.347C343.922 342.214 338.879 350.169 338.223 358.891L338.206 359.15C338.441 363.52 337.649 369.019 336.547 373.263L174.922 373.25C173.383 370.527 172.378 362.302 172.519 359.429ZM338.206 359.214L172.519 359.429C172.378 362.302 173.383 370.527 174.922 373.25L336.547 373.263C337.649 369.019 338.441 363.52 338.206 359.214Z"/>
	<path fill="#00526A" d="M461.469 404.138C461.287 404.216 461.43 404.352 460.871 404.356L370.485 404.557C367.839 404.581 364.355 405.056 361.829 404.382C346.399 400.27 348.051 391.56 350.231 379.997L352.455 367.623C359.564 331.348 369.696 323.078 404.925 310.769L437.22 300.649C441.84 299.227 446.575 297.624 450.377 294.552C456.154 299.675 460.93 314.787 461.338 321.875L461.469 404.138ZM395.172 339.093C365.179 342.693 369.175 388.789 400.55 385.413C410.337 384.207 417.73 376.768 420.267 367.5L420.39 367.065C421.861 361.566 420.498 354.93 417.625 350.105L414.921 346.418C410.013 340.531 402.64 338.508 395.262 339.037L395.172 339.093Z"/>
	<path fill="#00526A" d="M60.1058 296.871L93.0021 305.421L116.944 313.307C150.74 326.264 154.719 341.86 161.131 376.538L163.117 386.844C164.441 394.303 162.164 399.459 154.875 403.223C150.63 405.414 145.642 404.551 141.028 404.534L51.6467 403.904C51.3377 403.892 51.0414 403.748 50.8351 404.013L50.7114 337.19C50.7091 324.913 51.9202 306.933 60.1058 296.871ZM113.18 338.617C102.394 339.26 92.6694 347.104 90.7458 357.875L90.6792 358.235C88.243 372.178 100.074 386.542 114.45 385.668C146.343 381.859 141.755 339.159 113.18 338.617Z"/>
	<path fill="#00526A" d="M174.922 373.244L336.547 373.252L327.885 422.949C326.391 430.501 325.296 438.084 322.884 445.423L189.835 445.509L174.922 373.244Z"/>
</svg>
