<?xml version="1.0" encoding="utf-8" ?>
<svg xmlns="http://www.w3.org/2000/svg" xmlns:xlink="http://www.w3.org/1999/xlink" width="512" height="512">
	<defs>
		<linearGradient id="gradient_0" gradientUnits="userSpaceOnUse" x1="50.065098" y1="85.635536" x2="180.35837" y2="258.47189">
			<stop offset="0" stop-color="#DCE0D9"/>
			<stop offset="1" stop-color="#FFDBBE"/>
		</linearGradient>
	</defs>
	<path fill="url(#gradient_0)" d="M17.3467 189.678L17.2758 189.677C13.2557 178.39 11.3634 166.322 12.3126 154.347C18.2706 79.1792 105.542 40.3644 164.794 87.1148C167.502 89.2514 170.581 91.6238 172.781 94.2788C180.49 100.992 187.372 111.433 191.962 120.5C213.859 163.757 195.336 220.536 151.369 241.976C147.759 243.737 143.941 245.053 140.248 246.625C142.096 252.156 151.45 276.015 148.886 281.203C147.2 284.614 141.637 288.549 137.77 286.375C133.899 284.199 130.261 280.817 126.712 278.105L104.822 261.784C100.693 258.632 91.0171 249.745 86.25 248.745C82.1632 247.888 78.0843 247.375 74.0717 246.125C47.6665 237.899 25.2362 216.425 17.3467 189.678ZM138.38 181.625L138.125 181.705C134.481 182.906 131.644 188.811 128.908 191.564C114.816 205.743 92.3721 203.796 79.3538 189.709C77.3443 187.535 75.8584 184.777 73.5745 182.884C72.023 181.598 60.1345 184.744 70.3283 196.078C87.8429 215.416 116.287 218.222 135.926 200.421C140.23 196.52 144.149 192.652 144.841 186.63C143.9 184.309 141.359 180.85 138.38 181.625ZM67.379 155.512C68.1333 156.018 68.8286 156.467 69.7027 156.736L70 156.823C76.3164 158.718 83.1769 152.136 79.8799 144.497C71.7341 134.658 61.181 144.305 64.9309 152.524L65.0603 152.813C65.5591 153.866 66.5326 154.734 67.379 155.512ZM140.35 140.328C129.752 143.323 132.53 157.865 143.744 156.586C154.518 153.32 151.135 139.097 140.35 140.328Z"/>
	<defs>
		<linearGradient id="gradient_1" gradientUnits="userSpaceOnUse" x1="498.59418" y1="493.09003" x2="157.75684" y2="176.90105">
			<stop offset="0" stop-color="#FDFDFD"/>
			<stop offset="1" stop-color="#F4E2B5"/>
		</linearGradient>
	</defs>
	<path fill="url(#gradient_1)" d="M329.285 59.8462L345.114 57.3166C374.232 54.4711 421.075 61.1968 405.875 102.26L402.635 109.336C404.057 111.854 405.652 114.139 406.849 116.796C415.425 135.825 414.836 160.551 404.801 178.979C412.412 191.633 413.8 205.932 401.375 216.692C397.137 220.363 398.558 219.497 396.877 224.962L393.657 233.91C387.328 249.661 374.981 266.316 359.773 274.736L359.348 274.955C358.863 275.217 358.494 275.579 358.096 275.953L358.238 303.459C361.652 303.191 365.119 303.296 368.541 303.286L385.528 303.266C393.889 303.263 402.516 302.865 410.839 303.694C458.127 308.405 495.107 349.677 498.318 396.444C498.728 402.421 498.498 408.528 498.503 414.521L498.515 477.41C498.511 483.575 501.015 494.154 494.751 496.33L494.415 496.452C491.524 497.412 487.188 496.804 484.091 496.776L148.59 496.711C141.471 496.603 139.173 495.667 139.16 488.61L139.23 396C141.117 354.054 174.757 316.266 214.751 305.832C227.12 302.605 239.692 303.257 252.353 303.26L281.232 303.419L281.231 278.141C281.231 276.055 281.233 275.919 279.151 274.992C276.446 273.789 273.668 271.312 271.353 269.444C258.785 259.304 249.938 246.673 244.277 231.583L241.642 223.625C240.428 219.793 240.009 219.59 237.141 216.761C232.806 212.487 229.752 208.213 228.22 202.25L228.095 201.775C224.925 189.525 233.679 182.037 233.345 178.578C223.398 157.594 221.307 153.611 222.312 130.097C223.324 106.394 236.375 85.2745 258.873 76.5194C264.789 74.2171 271.029 73.0617 277.236 71.8735L329.285 59.8462ZM313.372 151.232C293.379 152.088 276.803 149.827 260.027 138.79C256.211 146.936 250.503 154.137 250.477 163.636L250.47 191.4L250.945 209.219C253.139 238.463 276.634 264.555 304.25 272.739C341.069 283.649 379.765 251.777 387.169 216.484C388.84 208.523 388.249 199.613 388.26 191.516L388.311 175.008C388.337 172.015 388.621 168.858 388.302 165.892C387.236 155.959 379.963 142.375 374.606 134.339C369.037 136.25 363.791 139.143 358.295 141.287C346.189 146.01 326.768 151.237 313.372 151.232ZM345.939 281.375C332.033 288.511 315.355 289.128 300.58 284.439C298.418 283.753 295.512 283.037 293.685 281.795L293.444 308.9C293.43 318.711 292.563 326.413 298.675 334.76C313.494 354.474 343.311 345.023 346.275 321.75C346.786 317.737 346.436 313.382 346.431 309.323L345.939 281.375ZM411.217 382.748C405.174 384.854 406.347 388.238 406.344 393.794L406.324 457.703C406.32 467.15 406.737 476.833 405.994 486.244L412.647 486.263L417.859 486.208L418.02 395.15C418.016 390.335 418.91 382.9 411.958 382.737L411.217 382.748ZM216.155 382.733C210.051 385.403 211.015 388.79 211.058 394.601L211.104 473.727C211.096 477.656 210.912 481.676 211.112 485.597L216.926 485.538L222.429 485.524L222.512 398.355C222.511 393.025 224.464 382.584 216.155 382.733Z"/>
	<path fill="#EAD7C3" d="M344.71 225.303L345.875 225.294C350.179 225.505 352.826 227.704 352.209 232.111C351.678 235.907 347.748 239.011 344.869 241.173C328.748 253.287 308.548 252.755 293.061 240.171C289.753 237.039 282.88 229.792 289.484 226.28C295.479 223.092 297.755 228.694 301.826 231.598C312.172 238.978 327.081 238.862 337.267 231.248C339.713 229.42 341.75 226.929 344.414 225.463L344.71 225.303Z"/>
</svg>
